# xmcd CD database file
# Copyright (C) 1993-1998 Ti Kan
# 
# Track frame offsets:
#     150
#     13625
#     30145
#     53153
#     67505
#     80833
#     94625
#     108553
#     125380
#     141373
#     153783
#     166135
#     189533
#     203440
# 
# Disc length: 3002 seconds
# 
# Revision: 1
# Processed by: cddbd v1.4b41PL1 Copyright (c) Steve Scherf et al.
# Submitted via: DiscPlay 4.0.4
# 
DISCID=a30bb80e
DTITLE=Al Green - Take Me To The River - Greatest Hits Vol. 2
DYEAR=1900
DGENRE=
TTITLE0=Drivin' Wheel
TTITLE1=I've Never Found A Girl
TTITLE2=Love And Happiness
TTITLE3=Livin' For You
TTITLE4=Sha-La-La (Make Me Happy)
TTITLE5=L-O-VE (Love)
TTITLE6=One Woman
TTITLE7=Take Me To The River
TTITLE8=Rhymes
TTITLE9=Oh Me, Oh My (Dreams In My Arms)
TTITLE10=Glory, Glory
TTITLE11=Full Of Fire
TTITLE12=Keep Me Cryin'
TTITLE13=Belle
EXTD=
EXTT0=
EXTT1=
EXTT2=
EXTT3=
EXTT4=
EXTT5=
EXTT6=
EXTT7=
EXTT8=
EXTT9=
EXTT10=
EXTT11=
EXTT12=
EXTT13=
PLAYORDER=
